<?xml version="1.0" standalone="no"?>
<!DOCTYPE svg PUBLIC "-//W3C//DTD SVG 20010904//EN"
 "http://www.w3.org/TR/2001/REC-SVG-20010904/DTD/svg10.dtd">
<svg version="1.0" xmlns="http://www.w3.org/2000/svg"
 width="168.000000pt" height="189.000000pt" viewBox="0 0 168.000000 189.000000"
 preserveAspectRatio="xMidYMid meet">

<g transform="translate(0.000000,189.000000) scale(0.100000,-0.100000)"
fill="#000000" stroke="none">
<path d="M946 1865 c-44 -17 -96 -47 -146 -85 -32 -25 -45 -28 -150 -32 -63
-3 -134 -12 -158 -21 -39 -14 -45 -13 -78 4 -46 23 -173 52 -210 47 -23 -2
-34 -13 -58 -61 -25 -50 -30 -69 -29 -135 0 -43 7 -103 17 -136 14 -49 16 -80
10 -185 -4 -77 -11 -132 -19 -141 -21 -25 5 -104 49 -149 36 -37 36 -37 20
-69 -27 -55 -11 -108 50 -167 51 -50 51 -50 39 -85 -6 -19 -12 -47 -12 -62 -1
-32 -4 -33 -30 -16 -31 19 -67 -4 -96 -62 -37 -73 -61 -66 -87 25 -8 31 -19
50 -28 50 -18 0 -17 -43 2 -101 26 -79 108 -81 143 -3 27 59 41 66 70 39 13
-12 36 -48 50 -79 15 -31 39 -69 53 -84 24 -25 26 -34 24 -95 -4 -80 5 -108
55 -163 79 -87 193 -105 241 -37 21 29 117 25 182 -9 40 -21 70 -28 133 -31
75 -4 87 -1 137 25 43 22 65 43 100 94 25 37 69 97 98 135 37 49 59 92 77 147
14 43 25 84 25 92 0 7 24 26 53 43 170 96 237 322 137 460 -39 54 -77 79 -149
97 -49 13 -72 14 -121 5 -34 -6 -69 -14 -78 -17 -13 -5 -12 0 6 29 12 19 28
54 37 77 13 39 13 41 -5 41 -22 0 -42 34 -71 118 -11 31 -30 74 -43 96 -16 29
-25 64 -29 118 -8 92 -34 166 -85 239 -42 60 -62 67 -126 44z m95 -82 c41 -59
69 -149 69 -223 0 -49 7 -71 39 -132 21 -40 46 -96 55 -125 10 -28 24 -57 32
-63 22 -19 17 -42 -24 -106 -45 -70 -107 -126 -177 -161 l-50 -25 -53 36 c-87
58 -207 83 -278 56 -20 -8 -32 -7 -48 4 -19 12 -25 12 -41 0 -10 -8 -29 -14
-43 -14 -14 0 -21 -4 -16 -11 4 -7 23 -9 51 -5 l45 6 -26 -31 c-14 -17 -29
-48 -32 -70 -8 -49 -24 -49 -59 -3 -47 62 -141 90 -211 64 -36 -14 -70 8 -94
62 -15 35 -16 45 -5 62 8 13 15 72 19 151 3 72 10 147 15 167 10 41 5 53 -15
37 -33 -27 -41 160 -10 229 16 36 23 42 50 42 36 0 122 -22 154 -39 21 -11 21
-13 6 -42 -22 -43 -12 -46 34 -9 56 44 118 60 240 60 102 0 105 1 144 32 49
39 157 97 180 98 9 0 31 -21 49 -47z m464 -729 c22 -11 53 -40 70 -63 24 -35
30 -54 33 -112 5 -79 -11 -132 -58 -198 -30 -41 -106 -99 -116 -88 -3 3 0 25
6 48 12 46 44 89 67 89 7 0 13 5 13 10 0 6 -10 10 -23 10 -28 0 -73 -45 -82
-82 -8 -32 -25 -38 -25 -9 0 34 -78 176 -130 234 -70 81 -76 94 -53 119 19 21
62 46 103 59 45 15 152 5 195 -17z m-633 -78 c61 -29 154 -120 164 -162 7 -27
34 -33 34 -7 0 9 -11 35 -25 58 l-24 42 59 36 60 35 15 -28 c8 -16 38 -55 66
-87 133 -151 176 -353 105 -492 -37 -73 -122 -156 -193 -189 -47 -21 -74 -27
-143 -28 -47 -1 -109 -7 -139 -13 -29 -6 -89 -11 -132 -11 -72 0 -79 -2 -79
-20 0 -11 -11 -27 -25 -36 -22 -14 -32 -15 -65 -5 -79 24 -140 102 -140 182 0
35 2 40 18 34 9 -5 41 -17 71 -27 30 -11 62 -29 72 -41 9 -12 32 -31 50 -41
l34 -20 -34 39 -34 39 63 13 c39 8 83 26 116 47 50 33 53 34 59 16 21 -65 95
-107 168 -94 l42 7 -50 12 c-73 17 -95 32 -117 82 l-20 45 26 47 c14 26 28 67
31 92 11 72 11 72 45 54 37 -19 68 -77 91 -170 17 -69 18 -69 18 -25 1 57 -21
139 -49 185 -27 43 -23 57 25 79 41 20 81 15 133 -15 43 -25 60 -24 37 1 -25
27 -96 60 -131 60 -31 0 -94 -33 -107 -56 -13 -22 -46 -17 -56 9 -30 77 -49
115 -70 140 -21 25 -23 33 -14 62 16 52 -6 65 -27 16 -20 -49 -64 -83 -114
-88 -40 -5 -48 -2 -76 25 -26 26 -30 38 -30 84 0 65 15 95 60 126 31 21 44 23
105 20 48 -3 88 -13 127 -32z m-456 -51 c69 -45 80 -127 24 -177 -69 -63 -197
-10 -215 89 -16 86 107 143 191 88z m124 -116 c0 -18 29 -52 89 -101 10 -8 35
-18 55 -21 92 -15 193 -111 180 -171 -10 -48 -12 -48 -56 0 -25 27 -69 58
-112 79 -80 39 -133 55 -122 36 4 -6 13 -11 19 -11 54 -1 186 -101 221 -168
14 -28 14 -32 -3 -53 l-18 -22 -37 41 c-59 65 -181 132 -219 119 -6 -2 11 -12
40 -21 73 -24 183 -127 183 -171 0 -12 -110 -56 -132 -53 -30 4 -49 58 -42
118 5 37 3 43 -8 32 -8 -8 -13 -38 -13 -83 0 -69 0 -70 -25 -67 -37 4 -54 48
-54 148 -1 96 17 149 74 213 42 48 25 48 -22 0 -67 -70 -83 -115 -83 -230 0
-100 0 -102 -20 -89 -27 18 -44 69 -44 137 -1 69 20 132 60 182 35 43 21 51
-18 10 -37 -40 -71 -118 -79 -182 l-7 -56 -14 40 c-16 45 -20 148 -6 184 7 18
18 24 52 26 23 2 54 11 69 21 15 10 50 23 77 30 l50 12 -39 1 c-32 1 -37 4
-31 19 4 9 10 29 13 45 5 32 22 37 22 6z m296 -121 c13 -26 24 -52 24 -57 0
-5 -23 6 -50 24 -28 19 -67 37 -86 41 l-36 7 40 17 c22 10 43 23 47 29 10 18
32 -4 61 -61z m318 -569 c-46 -53 -144 -72 -240 -48 -69 18 -39 32 73 34 63 1
110 8 133 18 48 21 56 20 34 -4z"/>
<path d="M967 1775 c-66 -45 -119 -175 -74 -183 9 -2 17 1 17 7 0 14 50 14 87
0 15 -5 41 -22 57 -37 25 -23 27 -24 17 -5 -16 32 -60 63 -108 76 -24 6 -43
15 -43 20 0 17 34 73 63 104 39 41 32 50 -16 18z"/>
<path d="M867 1276 c-3 -7 -24 -16 -47 -20 -78 -12 -141 -63 -126 -101 5 -13
14 -7 44 24 28 30 49 42 81 47 44 7 71 26 71 50 0 18 -16 18 -23 0z"/>
<path d="M240 1191 c0 -22 33 -42 58 -36 68 17 77 16 116 -10 48 -33 71 -20
33 19 -34 33 -71 42 -126 27 -30 -8 -47 -9 -55 -1 -13 13 -26 13 -26 1z"/>
<path d="M549 1114 c-10 -13 -10 -17 2 -25 8 -5 19 -9 25 -9 17 0 37 27 29 40
-9 15 -41 12 -56 -6z"/>
</g>
</svg>
