<?xml version="1.0" encoding="utf-8"?>
<!-- Generator: Adobe Illustrator 21.0.0, SVG Export Plug-In . SVG Version: 6.00 Build 0)  -->
<svg version="1.1" id="Layer_1" xmlns="http://www.w3.org/2000/svg" xmlns:xlink="http://www.w3.org/1999/xlink" x="0px" y="0px"
	 viewBox="0 0 352.8 700" style="enable-background:new 0 0 352.8 700;" xml:space="preserve">
<style type="text/css">
	.st0{fill:none;stroke:#000000;stroke-width:2;stroke-linecap:round;stroke-linejoin:round;}
</style>
<g id="Layer_10">
	<path class="st0" d="M298.6,700V203.4L0,31.1v496.6L298.6,700z"/>
</g>
<g id="Layer_9">
	<path class="st0" d="M298.6,700V203.4L0,31.1v496.6L298.6,700z"/>
	<path class="st0" d="M352.8,672.9V176.3L54.2,3.9"/>
</g>
<g id="Layer_8">
	<path class="st0" d="M298.6,700V203.4L0,31.1v496.6L298.6,700z"/>
	<path class="st0" d="M352.8,672.9V176.3L54.2,3.9"/>
	<path class="st0" d="M0,31.1L54.2,3.9"/>
</g>
<g id="Layer_7">
	<path class="st0" d="M298.6,700V203.4L0,31.1v496.6L298.6,700z"/>
	<path class="st0" d="M352.8,672.9V176.3L54.2,3.9"/>
	<path class="st0" d="M0,31.1L54.2,3.9"/>
	<path class="st0" d="M298.6,203.4l54.3-27.1"/>
</g>
<g id="Layer_6">
	<path class="st0" d="M298.6,700V203.4L0,31.1v496.6L298.6,700z"/>
	<path class="st0" d="M352.8,672.9V176.3L54.2,3.9"/>
	<path class="st0" d="M0,31.1L54.2,3.9"/>
	<path class="st0" d="M298.6,203.4l54.3-27.1"/>
	<path class="st0" d="M298.6,700l54.3-27.1"/>
</g>
<g id="Layer_5">
	<path class="st0" d="M298.6,700V203.4L0,31.1v496.6L298.6,700z"/>
	<path class="st0" d="M352.8,672.9V176.3L54.2,3.9"/>
	<path class="st0" d="M0,31.1L54.2,3.9"/>
	<path class="st0" d="M298.6,203.4l54.3-27.1"/>
	<path class="st0" d="M298.6,700l54.3-27.1"/>
	<path class="st0" d="M298.6,700l-42.1-108.9c-10.1-27.1-28.7-50.3-53-65.9L95.2,462.7c-21.9-12.7-42.2-10.9-53,4.7L0,527.6
		L298.6,700z"/>
</g>
<g id="Layer_4">
	<path class="st0" d="M298.6,700V203.4L0,31.1v496.6L298.6,700z"/>
	<path class="st0" d="M352.8,672.9V176.3L54.2,3.9"/>
	<path class="st0" d="M0,31.1L54.2,3.9"/>
	<path class="st0" d="M298.6,203.4l54.3-27.1"/>
	<path class="st0" d="M298.6,700l54.3-27.1"/>
	<path class="st0" d="M298.6,700l-42.1-108.9c-10.1-27.1-28.7-50.3-53-65.9L95.2,462.7c-21.9-12.7-42.2-10.9-53,4.7L0,527.6
		L298.6,700z"/>
	<path class="st0" d="M126.9,232.7v-17.1c0-14.2,10-19.9,22.4-12.8c13.2,8.6,21.5,22.9,22.4,38.6v17.1c0,14.2-10,19.9-22.4,12.8h0
		C136.1,262.8,127.8,248.4,126.9,232.7L126.9,232.7z"/>
</g>
<g id="Layer_3">
	<path class="st0" d="M298.6,700V203.4L0,31.1v496.6L298.6,700z"/>
	<path class="st0" d="M352.8,672.9V176.3L54.2,3.9"/>
	<path class="st0" d="M0,31.1L54.2,3.9"/>
	<path class="st0" d="M298.6,203.4l54.3-27.1"/>
	<path class="st0" d="M298.6,700l54.3-27.1"/>
	<path class="st0" d="M298.6,700l-42.1-108.9c-10.1-27.1-28.7-50.3-53-65.9L95.2,462.7c-21.9-12.7-42.2-10.9-53,4.7L0,527.6
		L298.6,700z"/>
	<path class="st0" d="M126.9,232.7v-17.1c0-14.2,10-19.9,22.4-12.8c13.2,8.6,21.5,22.9,22.4,38.6v17.1c0,14.2-10,19.9-22.4,12.8h0
		C136.1,262.8,127.8,248.4,126.9,232.7L126.9,232.7z"/>
	<path class="st0" d="M298.6,203.4l-42.1,60.2c-10.9,15.6-31.1,17.3-53,4.7L171.7,250v-8.6c-0.9-15.7-9.2-30-22.4-38.6
		c-12.4-7.1-22.4-1.4-22.4,12.8v8.6l-31.7-18.3c-24.3-15.6-43-38.8-53-65.9L0,31.1L298.6,203.4z"/>
</g>
</svg>
