<?xml version="1.0" encoding="utf-8"?>
<!-- Generator: Adobe Illustrator 21.0.0, SVG Export Plug-In . SVG Version: 6.00 Build 0)  -->
<svg version="1.1" id="Layer_1" xmlns="http://www.w3.org/2000/svg" xmlns:xlink="http://www.w3.org/1999/xlink" x="0px" y="0px"
	 viewBox="0 0 477.7 547.3" style="enable-background:new 0 0 477.7 547.3;" xml:space="preserve">
<style type="text/css">
	.st0{fill:none;stroke:#000000;stroke-width:2;stroke-linecap:round;stroke-linejoin:round;}
</style>
<g id="Layer_8">
	<path class="st0" d="M1,297.3l433,250v-274L1,23.2L1,297.3z"/>
</g>
<g id="Layer_7">
	<path class="st0" d="M1,297.3l433,250v-274L1,23.2L1,297.3z"/>
	<path class="st0" d="M217.5,310.9L1,23.2l433,250L217.5,310.9z"/>
</g>
<g id="Layer_6">
	<path class="st0" d="M1,297.3l433,250v-274L1,23.2L1,297.3z"/>
	<path class="st0" d="M217.5,310.9L1,23.2l433,250L217.5,310.9z"/>
	<path class="st0" d="M476.5,526V252L43.5,2"/>
</g>
<g id="Layer_5">
	<path class="st0" d="M1,297.3l433,250v-274L1,23.2L1,297.3z"/>
	<path class="st0" d="M217.5,310.9L1,23.2l433,250L217.5,310.9z"/>
	<path class="st0" d="M476.5,526V252L43.5,2"/>
	<path class="st0" d="M217.5,310.9l34.2-6L434,547.3L1,297.3l182.3-31.7L217.5,310.9z"/>
</g>
<g id="Layer_4">
	<path class="st0" d="M1,297.3l433,250v-274L1,23.2L1,297.3z"/>
	<path class="st0" d="M217.5,310.9L1,23.2l433,250L217.5,310.9z"/>
	<path class="st0" d="M476.5,526V252L43.5,2"/>
	<path class="st0" d="M217.5,310.9l34.2-6L434,547.3L1,297.3l182.3-31.7L217.5,310.9z"/>
	<path class="st0" d="M434,273.2l42.5-21.2L43.5,2L1,23.2"/>
</g>
<g id="Layer_3">
	<path class="st0" d="M1,297.3l433,250v-274L1,23.2L1,297.3z"/>
	<path class="st0" d="M217.5,310.9L1,23.2l433,250L217.5,310.9z"/>
	<path class="st0" d="M476.5,526V252L43.5,2"/>
	<path class="st0" d="M217.5,310.9l34.2-6L434,547.3L1,297.3l182.3-31.7L217.5,310.9z"/>
	<path class="st0" d="M434,273.2l42.5-21.2L43.5,2L1,23.2"/>
	<path class="st0" d="M434,547.3l42.5-21.2"/>
</g>
</svg>
